<svg width="100" height="18" viewBox="0 0 100 18" fill="none" xmlns="http://www.w3.org/2000/svg">
<path d="M0.91356 12.0823C0.63071 12.0823 0.407167 11.9962 0.244072 11.8263C0.0809771 11.6552 0 11.4416 0 11.1844V0.920655C0 0.635901 0.0809771 0.410854 0.244072 0.246661C0.407167 0.0824683 0.629569 0.000946045 0.91356 0.000946045C1.18272 0.000946045 1.39828 0.0836165 1.56138 0.246661C1.72447 0.410854 1.80545 0.634753 1.80545 0.920655V11.1844C1.80545 11.4405 1.72333 11.6552 1.56138 11.8263C1.39828 11.9974 1.18272 12.0823 0.91356 12.0823ZM0.91356 16.7015C0.63071 16.7015 0.407167 16.62 0.244072 16.4558C0.0809771 16.2916 0 16.0746 0 15.8037V5.92452C0 5.63977 0.0809771 5.41472 0.244072 5.25053C0.407167 5.08633 0.629569 5.00481 0.91356 5.00481C1.18272 5.00481 1.39828 5.08748 1.56138 5.25053C1.72447 5.41472 1.80545 5.63862 1.80545 5.92452V15.8037C1.80545 16.0746 1.72333 16.2916 1.56138 16.4558C1.39828 16.62 1.18272 16.7015 0.91356 16.7015ZM9.92028 16.7015C9.65111 16.7015 9.43213 16.6166 9.26219 16.4455C9.09225 16.2744 9.00671 16.0608 9.00671 15.8037V10.3508C9.00671 9.48165 8.84704 8.77206 8.52884 8.22322C8.21063 7.67438 7.77495 7.26103 7.22294 6.98316C6.67092 6.7053 6.04021 6.56637 5.33195 6.56637C4.66588 6.56637 4.06825 6.69841 3.53676 6.9625C3.00642 7.22658 2.58443 7.58252 2.27306 8.03147C1.9617 8.48042 1.80545 8.99711 1.80545 9.58154H0.573683C0.602196 8.68365 0.839426 7.88106 1.28537 7.17606C1.73132 6.46992 2.32895 5.91074 3.08055 5.49739C3.83102 5.08404 4.66588 4.87736 5.58743 4.87736C6.57854 4.87736 7.46701 5.08748 8.25283 5.50772C9.03865 5.92797 9.66138 6.54455 10.1221 7.35748C10.5818 8.1704 10.8122 9.16819 10.8122 10.3508V15.8037C10.8122 16.0608 10.7278 16.2744 10.5578 16.4455C10.3879 16.6166 10.1758 16.7015 9.92028 16.7015Z" fill="#1D2B75"/>
<path d="M21.6654 16.8303C20.6595 16.8303 19.7641 16.6202 18.9783 16.2C18.1925 15.7797 17.5732 15.1631 17.1193 14.3502C16.6665 13.5373 16.4395 12.5395 16.4395 11.3569V5.90405C16.4395 5.648 16.5251 5.43328 16.695 5.2622C16.8649 5.09112 17.0771 5.00615 17.3325 5.00615C17.588 5.00615 17.8002 5.09112 17.9701 5.2622C18.14 5.43328 18.2256 5.64685 18.2256 5.90405V11.3569C18.2256 12.226 18.3887 12.9356 18.7137 13.4845C19.0388 14.0333 19.479 14.4467 20.031 14.7245C20.583 15.0024 21.2058 15.1413 21.9003 15.1413C22.5949 15.1413 23.1675 15.0093 23.7058 14.7452C24.2441 14.4811 24.6684 14.1252 24.9809 13.6762C25.2923 13.2273 25.4485 12.7106 25.4485 12.1262H26.6586C26.6301 13.024 26.3963 13.8266 25.9572 14.5316C25.5181 15.2378 24.9239 15.797 24.1734 16.2103C23.4229 16.6237 22.5869 16.8303 21.6677 16.8303H21.6654ZM26.3381 16.7017C26.069 16.7017 25.8523 16.6202 25.6903 16.456C25.5272 16.2918 25.4462 16.0679 25.4462 15.782V5.9029C25.4462 5.63192 25.5272 5.41491 25.6903 5.25072C25.8523 5.08653 26.069 5.005 26.3381 5.005C26.6073 5.005 26.8263 5.08768 26.9962 5.25072C27.1661 5.41491 27.2505 5.63192 27.2505 5.9029V15.782C27.2505 16.0668 27.1661 16.2918 26.9962 16.456C26.8263 16.6202 26.6061 16.7017 26.3381 16.7017Z" fill="#1D2B75"/>
<path d="M34.218 16.7017C33.9352 16.7017 33.7116 16.6202 33.5485 16.456C33.3854 16.2918 33.3044 16.0748 33.3044 15.8038V5.92471C33.3044 5.65374 33.3854 5.43328 33.5485 5.2622C33.7116 5.09112 33.934 5.00615 34.218 5.00615C34.4872 5.00615 34.7027 5.09112 34.8658 5.2622C35.0289 5.43328 35.1099 5.65489 35.1099 5.92471V15.8038C35.1099 16.0748 35.0278 16.2918 34.8658 16.456C34.7027 16.6202 34.4872 16.7017 34.218 16.7017ZM41.5459 16.7017C41.2904 16.7017 41.0783 16.6202 40.9083 16.456C40.7384 16.2918 40.6528 16.0748 40.6528 15.8038V9.6667C40.6528 8.68269 40.4019 7.92029 39.899 7.37834C39.396 6.83638 38.755 6.56541 37.976 6.56541C37.14 6.56541 36.4534 6.84327 35.9162 7.399C35.3779 7.95473 35.1088 8.68155 35.1088 9.58059H33.877C33.9055 8.65399 34.1028 7.83762 34.4712 7.13262C34.8396 6.42648 35.3494 5.87419 36.0006 5.47577C36.6519 5.07734 37.3955 4.87755 38.2304 4.87755C39.0652 4.87755 39.7815 5.07045 40.4179 5.4551C41.0554 5.83974 41.5504 6.39318 41.9051 7.11195C42.2587 7.83188 42.4366 8.68384 42.4366 9.66785V15.805C42.4366 16.076 42.3545 16.293 42.1925 16.4572C42.0294 16.6214 41.8139 16.7029 41.5447 16.7029L41.5459 16.7017ZM48.8737 16.7017C48.6046 16.7017 48.3856 16.6202 48.2157 16.456C48.0457 16.2918 47.9602 16.0748 47.9602 15.8038V9.6667C47.9602 8.68269 47.7127 7.92029 47.2166 7.37834C46.7204 6.83638 46.076 6.56541 45.2834 6.56541C44.4474 6.56541 43.7642 6.85016 43.2338 7.42082C42.7035 7.99148 42.4378 8.7401 42.4378 9.66555H40.8866C40.9003 8.71025 41.1056 7.87321 41.5025 7.15329C41.8994 6.43337 42.448 5.87419 43.1483 5.47462C43.8497 5.07619 44.6458 4.8764 45.5377 4.8764C46.3589 4.8764 47.0888 5.0693 47.7252 5.45395C48.3628 5.8386 48.8612 6.39203 49.2227 7.1108C49.5843 7.83073 49.7645 8.68269 49.7645 9.6667V15.8038C49.7645 16.0748 49.6789 16.2918 49.509 16.456C49.3391 16.6202 49.1269 16.7017 48.8715 16.7017H48.8737Z" fill="#1D2B75"/>
<path d="M60.62 16.8085C59.5433 16.8085 58.5807 16.549 57.731 16.0278C56.8813 15.5076 56.2084 14.798 55.7134 13.9001C55.2173 13.0023 54.9698 11.9895 54.9698 10.8632C54.9698 9.73677 55.2276 8.70338 55.7454 7.80549C56.262 6.9076 56.9669 6.19801 57.8588 5.67787C58.7507 5.15774 59.7566 4.89709 60.8743 4.89709C61.992 4.89709 62.974 5.15774 63.8591 5.67787C64.7441 6.19801 65.4444 6.9076 65.9622 7.80549C66.4788 8.70338 66.7446 9.72299 66.7583 10.8632L66.0363 11.2271C66.0363 12.2823 65.7991 13.2307 65.3246 14.0712C64.8502 14.9129 64.2058 15.5788 63.3914 16.0703C62.5771 16.5617 61.6533 16.8085 60.62 16.8085ZM60.8743 15.1838C61.667 15.1838 62.3718 14.9955 62.9877 14.6166C63.6036 14.2389 64.0917 13.7222 64.4533 13.0666C64.8148 12.4109 64.995 11.6761 64.995 10.8643C64.995 10.0525 64.8148 9.30045 64.4533 8.65057C64.0917 8.00183 63.6036 7.48514 62.9877 7.10049C62.3718 6.71585 61.667 6.52295 60.8743 6.52295C60.0816 6.52295 59.3905 6.71585 58.7609 7.10049C58.1302 7.48514 57.6318 8.00183 57.2634 8.65057C56.895 9.2993 56.7114 10.0376 56.7114 10.8643C56.7114 11.691 56.895 12.4109 57.2634 13.0666C57.6318 13.7222 58.1302 14.2389 58.7609 14.6166C59.3905 14.9944 60.0953 15.1838 60.8743 15.1838ZM65.8447 16.7018C65.5892 16.7018 65.3737 16.6202 65.1969 16.456C65.0201 16.2919 64.9312 16.0748 64.9312 15.8039V12.2754L65.3349 10.4154L66.7583 10.8643V15.8039C66.7583 16.0748 66.6727 16.2919 66.5028 16.456C66.3329 16.6202 66.1127 16.7018 65.8447 16.7018Z" fill="#1D2B75"/>
<path d="M73.0882 16.7018C72.8054 16.7018 72.5818 16.6202 72.4187 16.456C72.2556 16.2918 72.1747 16.0748 72.1747 15.8039V5.92473C72.1747 5.63997 72.2556 5.41492 72.4187 5.25073C72.5818 5.08654 72.8042 5.00501 73.0882 5.00501C73.3574 5.00501 73.5729 5.08768 73.736 5.25073C73.8991 5.41492 73.9801 5.63882 73.9801 5.92473V15.8039C73.9801 16.0748 73.898 16.2918 73.736 16.456C73.5729 16.6202 73.3574 16.7018 73.0882 16.7018ZM82.0949 16.7018C81.8258 16.7018 81.6068 16.6168 81.4368 16.4457C81.2669 16.2746 81.1814 16.0611 81.1814 15.8039V10.351C81.1814 9.48185 81.0217 8.77227 80.7035 8.22342C80.3853 7.67458 79.9496 7.26123 79.3976 6.98337C78.8456 6.7055 78.2149 6.56657 77.5066 6.56657C76.8405 6.56657 76.2429 6.69861 75.7114 6.9627C75.1811 7.22679 74.7591 7.58273 74.4477 8.03168C74.1364 8.48062 73.9801 8.99731 73.9801 9.58175H72.7483C72.7768 8.68385 73.0141 7.88126 73.46 7.17626C73.906 6.47012 74.5036 5.91095 75.2552 5.49759C76.0057 5.08424 76.8405 4.87756 77.7621 4.87756C78.7532 4.87756 79.6417 5.08769 80.4275 5.50793C81.2133 5.92817 81.836 6.54475 82.2968 7.35768C82.7564 8.17061 82.9868 9.16839 82.9868 10.351V15.8039C82.9868 16.0611 82.9024 16.2746 82.7325 16.4457C82.5625 16.6168 82.3504 16.7018 82.0949 16.7018Z" fill="#1D2B75"/>
<path d="M94.116 16.8085C92.9972 16.8085 91.9924 16.549 91.1005 16.0278C90.2086 15.5076 89.5038 14.798 88.9871 13.9001C88.4704 13.0022 88.2115 11.9826 88.2115 10.8425C88.2115 9.70231 88.459 8.70452 88.9552 7.80548C89.4502 6.90758 90.1231 6.19799 90.9728 5.67786C91.8224 5.15772 92.785 4.89708 93.8617 4.89708C94.7821 4.89708 95.6135 5.09343 96.3572 5.48496C97.1008 5.87765 97.7064 6.39434 98.1729 7.03503V0.91971C98.1729 0.634956 98.2607 0.409908 98.4386 0.245715C98.6154 0.0815223 98.8321 0 99.0864 0C99.3556 0 99.5746 0.0826705 99.7445 0.245715C99.9145 0.409908 100 0.633808 100 0.91971V10.9056C99.9715 12.0171 99.6989 13.0195 99.1822 13.9105C98.6656 14.8015 97.9676 15.5076 97.0905 16.0278C96.2123 16.5479 95.2212 16.8085 94.1172 16.8085H94.116ZM94.116 15.1838C94.9087 15.1838 95.6135 14.9909 96.2294 14.6063C96.8453 14.2216 97.3335 13.7049 97.695 13.0562C98.0565 12.4075 98.2367 11.6703 98.2367 10.8425C98.2367 10.0146 98.0565 9.29584 97.695 8.64022C97.3335 7.9846 96.8453 7.46791 96.2294 7.09015C95.6135 6.71239 94.9087 6.52294 94.116 6.52294C93.3234 6.52294 92.6322 6.71239 92.0026 7.09015C91.3719 7.46791 90.8735 7.9846 90.5051 8.64022C90.1368 9.29584 89.9531 10.0307 89.9531 10.8425C89.9531 11.6543 90.1368 12.4075 90.5051 13.0562C90.8735 13.7049 91.3719 14.2216 92.0026 14.6063C92.6322 14.9909 93.3371 15.1838 94.116 15.1838Z" fill="#1D2B75"/>
</svg>
